<?xml version="1.0" standalone="no"?>
<!DOCTYPE svg PUBLIC "-//W3C//DTD SVG 20010904//EN"
 "http://www.w3.org/TR/2001/REC-SVG-20010904/DTD/svg10.dtd">
<svg version="1.0" xmlns="http://www.w3.org/2000/svg"
 width="531.000000pt" height="86.000000pt" viewBox="0 0 531.000000 86.000000"
 preserveAspectRatio="xMidYMid meet">

<g transform="translate(0.000000,86.000000) scale(0.100000,-0.100000)"
fill="#000000" stroke="none">
<path d="M587 828 c-48 -13 -130 -87 -157 -142 -12 -26 -24 -75 -27 -115 -5
-61 -4 -71 12 -77 24 -10 35 12 35 71 1 82 46 160 120 204 65 39 110 17 110
-53 0 -85 -66 -171 -159 -205 -60 -22 -76 -37 -61 -61 12 -20 136 36 182 82
104 104 116 255 23 294 -19 8 -36 14 -37 13 -2 -1 -20 -6 -41 -11z"/>
<path d="M160 814 c0 -9 34 -64 76 -123 65 -92 74 -110 69 -137 -6 -37 -3 -42
153 -244 62 -79 111 -151 110 -159 -8 -39 -37 -8 -154 168 -102 153 -132 191
-149 191 -33 0 -57 24 -133 130 -68 95 -102 122 -102 81 0 -24 143 -226 170
-241 10 -6 27 -10 38 -10 14 0 54 -52 142 -184 67 -102 129 -187 137 -190 48
-19 103 12 103 58 0 15 -48 86 -133 197 -121 158 -133 178 -133 214 1 35 -11
57 -79 153 -51 72 -86 112 -97 112 -10 0 -18 -7 -18 -16z"/>
<path d="M94 775 c-7 -18 133 -218 149 -212 26 8 15 39 -49 131 -66 93 -89
112 -100 81z"/>
<path d="M2447 724 c-4 -4 -7 -54 -7 -112 l0 -104 -31 26 c-39 33 -125 37
-173 7 -54 -34 -71 -75 -71 -171 0 -136 44 -190 157 -190 46 0 62 5 86 25 37
31 42 31 42 0 0 -20 5 -25 25 -25 l25 0 -2 273 c-3 265 -4 272 -23 275 -12 2
-24 0 -28 -4z m-45 -231 c27 -24 41 -80 36 -149 -3 -53 -9 -69 -30 -91 -33
-32 -100 -37 -141 -11 -47 32 -60 146 -25 222 24 53 115 69 160 29z"/>
<path d="M3656 694 c-19 -19 -20 -25 -3 -48 20 -27 51 -17 55 18 5 42 -24 59
-52 30z"/>
<path d="M2886 690 c-70 -21 -109 -95 -86 -164 15 -47 54 -78 140 -112 111
-43 138 -97 80 -156 -30 -29 -32 -30 -108 -25 -42 3 -90 9 -105 12 -27 7 -28
6 -25 -21 4 -35 24 -42 133 -43 58 -1 89 4 114 17 69 35 97 110 66 176 -15 32
-32 43 -121 86 -127 61 -150 94 -104 153 28 35 77 43 150 25 62 -15 70 -12 70
27 0 27 -138 44 -204 25z"/>
<path d="M950 435 l0 -255 30 0 30 0 0 110 0 110 105 0 105 0 0 25 0 25 -105
0 -105 0 0 95 0 95 110 0 110 0 0 25 0 25 -140 0 -140 0 0 -255z"/>
<path d="M5146 652 c-2 -4 -7 -25 -11 -46 -6 -30 -14 -41 -36 -50 -37 -13 -40
-46 -4 -46 l25 0 0 -112 c0 -185 21 -222 122 -216 47 3 53 6 56 26 3 21 1 23
-32 17 -29 -6 -39 -3 -60 19 -25 24 -26 30 -26 145 l0 120 58 3 c50 3 57 6 60
26 3 21 0 22 -57 22 l-61 0 0 50 c0 37 -4 50 -14 50 -8 0 -17 -3 -20 -8z"/>
<path d="M1370 537 c-55 -37 -75 -81 -75 -167 0 -87 20 -130 76 -168 29 -20
44 -23 104 -20 83 4 115 22 146 86 17 35 20 56 17 117 -4 82 -20 113 -78 153
-47 31 -143 31 -190 -1z m162 -39 c46 -23 65 -155 32 -219 -31 -60 -127 -75
-172 -26 -75 80 -45 244 48 259 28 5 67 -1 92 -14z"/>
<path d="M1810 541 c-20 -11 -44 -36 -58 -62 -20 -37 -23 -55 -20 -121 3 -85
19 -115 78 -155 47 -32 143 -32 190 0 55 37 75 81 75 167 0 86 -20 130 -75
167 -43 30 -139 32 -190 4z m164 -50 c10 -9 25 -30 32 -48 27 -63 12 -156 -32
-194 -49 -43 -139 -27 -168 30 -23 44 -21 148 4 188 31 52 118 65 164 24z"/>
<path d="M3210 371 l0 -191 30 0 30 0 0 134 c0 129 1 136 25 164 42 50 140 48
163 -4 7 -15 12 -79 12 -159 l0 -135 30 0 30 0 0 143 c0 200 -21 237 -138 237
-51 0 -112 -23 -112 -42 0 -19 -19 -6 -22 15 -2 14 -11 23 -25 25 l-23 3 0
-190z"/>
<path d="M3650 370 l0 -190 30 0 30 0 0 190 0 190 -30 0 -30 0 0 -190z"/>
<path d="M3830 285 l0 -275 30 0 30 0 0 111 0 111 31 -26 c25 -21 41 -26 87
-26 105 0 152 51 160 176 8 133 -47 204 -160 204 -46 0 -62 -5 -86 -25 -31
-26 -42 -24 -42 7 0 13 -7 18 -25 18 l-25 0 0 -275z m233 213 c45 -23 62 -148
30 -215 -32 -69 -139 -79 -179 -17 -26 38 -30 151 -7 194 27 53 95 69 156 38z"/>
<path d="M4270 285 l0 -275 30 0 30 0 0 111 0 111 31 -26 c25 -21 41 -26 87
-26 105 0 152 51 160 176 8 133 -47 204 -160 204 -46 0 -62 -5 -86 -25 -31
-26 -42 -24 -42 7 0 13 -7 18 -25 18 l-25 0 0 -275z m233 213 c45 -23 62 -148
30 -215 -32 -69 -139 -79 -179 -17 -26 38 -30 151 -7 194 27 53 95 69 156 38z"/>
<path d="M4773 541 c-100 -63 -105 -265 -9 -334 24 -17 48 -23 106 -25 93 -4
130 8 130 43 0 23 -2 24 -27 14 -15 -5 -53 -10 -84 -10 -83 -1 -109 20 -134
109 l-6 22 135 0 136 0 0 40 c0 51 -20 98 -54 130 -38 34 -146 41 -193 11z
m136 -36 c25 -12 51 -57 51 -86 0 -5 -45 -9 -100 -9 -109 0 -112 2 -88 56 12
27 57 53 91 54 10 0 31 -7 46 -15z"/>
<path d="M229 293 c-64 -82 -90 -129 -82 -151 19 -55 83 -70 120 -30 32 35 93
135 93 153 0 8 -8 15 -19 15 -11 0 -31 -21 -55 -60 -20 -33 -44 -67 -53 -75
-14 -15 -17 -15 -31 -1 -14 14 -10 23 47 96 59 76 71 108 45 117 -6 2 -36 -27
-65 -64z"/>
</g>
</svg>
